<svg width="98" height="98" viewBox="0 0 98 98" fill="none" xmlns="http://www.w3.org/2000/svg">
<g filter="url(#filter0_d_4_1075)">
<rect x="14" y="14" width="70" height="70" rx="35" fill="#FDB623"/>
</g>
<g clip-path="url(#clip0_4_1075)">
<path d="M29 30.25C29 29.9185 29.1317 29.6005 29.3661 29.3661C29.6005 29.1317 29.9185 29 30.25 29H37.75C38.0815 29 38.3995 29.1317 38.6339 29.3661C38.8683 29.6005 39 29.9185 39 30.25C39 30.5815 38.8683 30.8995 38.6339 31.1339C38.3995 31.3683 38.0815 31.5 37.75 31.5C34.2982 31.5 31.5 34.2982 31.5 37.75C31.5 38.0815 31.3683 38.3995 31.1339 38.6339C30.8995 38.8683 30.5815 39 30.25 39C29.9185 39 29.6005 38.8683 29.3661 38.6339C29.1317 38.3995 29 38.0815 29 37.75V30.25ZM59 30.25C59 29.9185 59.1317 29.6005 59.3661 29.3661C59.6005 29.1317 59.9185 29 60.25 29H67.75C68.0815 29 68.3995 29.1317 68.6339 29.3661C68.8683 29.6005 69 29.9185 69 30.25V37.75C69 38.0815 68.8683 38.3995 68.6339 38.6339C68.3995 38.8683 68.0815 39 67.75 39C67.4185 39 67.1005 38.8683 66.8661 38.6339C66.6317 38.3995 66.5 38.0815 66.5 37.75C66.5 34.2982 63.7018 31.5 60.25 31.5C59.9185 31.5 59.6005 31.3683 59.3661 31.1339C59.1317 30.8995 59 30.5815 59 30.25ZM30.25 59C30.5815 59 30.8995 59.1317 31.1339 59.3661C31.3683 59.6005 31.5 59.9185 31.5 60.25C31.5 63.7018 34.2982 66.5 37.75 66.5C38.0815 66.5 38.3995 66.6317 38.6339 66.8661C38.8683 67.1005 39 67.4185 39 67.75C39 68.0815 38.8683 68.3995 38.6339 68.6339C38.3995 68.8683 38.0815 69 37.75 69H30.25C29.9185 69 29.6005 68.8683 29.3661 68.6339C29.1317 68.3995 29 68.0815 29 67.75V60.25C29 59.9185 29.1317 59.6005 29.3661 59.3661C29.6005 59.1317 29.9185 59 30.25 59ZM67.75 59C68.0815 59 68.3995 59.1317 68.6339 59.3661C68.8683 59.6005 69 59.9185 69 60.25V67.75C69 68.0815 68.8683 68.3995 68.6339 68.6339C68.3995 68.8683 68.0815 69 67.75 69H60.25C59.9185 69 59.6005 68.8683 59.3661 68.6339C59.1317 68.3995 59 68.0815 59 67.75C59 67.4185 59.1317 67.1005 59.3661 66.8661C59.6005 66.6317 59.9185 66.5 60.25 66.5C63.7018 66.5 66.5 63.7018 66.5 60.25C66.5 59.9185 66.6317 59.6005 66.8661 59.3661C67.1005 59.1317 67.4185 59 67.75 59ZM39 40.25C39 39.5596 39.5596 39 40.25 39C40.9404 39 41.5 39.5596 41.5 40.25C41.5 40.9404 40.9404 41.5 40.25 41.5C39.5596 41.5 39 40.9404 39 40.25Z" fill="#333333"/>
<path d="M46.5 34H34V46.5H46.5V34ZM36.5 36.5H44V44H36.5V36.5ZM41.5 56.5H39V59H41.5V56.5Z" fill="white"/>
<path d="M46.5 51.5H34V64H46.5V51.5ZM36.5 54H44V61.5H36.5V54ZM56.5 39H59V41.5H56.5V39Z" fill="white"/>
<path d="M51.5 34H64V46.5H51.5V34ZM54 36.5V44H61.5V36.5H54ZM49 49V54H51.5V56.5H49V59H54V54H56.5V59H59V56.5H64V54H56.5V49H49ZM54 54H51.5V51.5H54V54ZM64 59H61.5V61.5H56.5V64H64V59ZM54 64V61.5H49V64H54Z" fill="white"/>
<path d="M59 51.5H64V49H59V51.5Z" fill="white"/>
<circle cx="40.2222" cy="40.2222" r="1.44444" fill="white"/>
<path d="M29.7778 49L68.5556 48.6667" stroke="#333333" stroke-width="7" stroke-linecap="round" stroke-linejoin="round"/>
</g>
<defs>
<filter id="filter0_d_4_1075" x="0" y="0" width="98" height="98" filterUnits="userSpaceOnUse" color-interpolation-filters="sRGB">
<feFlood flood-opacity="0" result="BackgroundImageFix"/>
<feColorMatrix in="SourceAlpha" type="matrix" values="0 0 0 0 0 0 0 0 0 0 0 0 0 0 0 0 0 0 127 0" result="hardAlpha"/>
<feMorphology radius="2" operator="dilate" in="SourceAlpha" result="effect1_dropShadow_4_1075"/>
<feOffset/>
<feGaussianBlur stdDeviation="6"/>
<feComposite in2="hardAlpha" operator="out"/>
<feColorMatrix type="matrix" values="0 0 0 0 0.992157 0 0 0 0 0.713726 0 0 0 0 0.137255 0 0 0 1 0"/>
<feBlend mode="normal" in2="BackgroundImageFix" result="effect1_dropShadow_4_1075"/>
<feBlend mode="normal" in="SourceGraphic" in2="effect1_dropShadow_4_1075" result="shape"/>
</filter>
<clipPath id="clip0_4_1075">
<rect width="40" height="40" fill="white" transform="translate(29 29)"/>
</clipPath>
</defs>
</svg>
